<?xml version="1.0" encoding="UTF-8"?>
<svg version="1.1" xmlns="http://www.w3.org/2000/svg" width="325" height="325">
<path d="M0 0 C107.25 0 214.5 0 325 0 C325 107.25 325 214.5 325 325 C217.75 325 110.5 325 0 325 C0 217.75 0 110.5 0 0 Z " fill="#0A68AC" transform="translate(0,0)"/>
<path d="M0 0 C4.11527331 3.81415575 6.74486477 7.11081159 7.04351807 12.81698608 C7.05503962 14.56205778 7.04464508 16.3073617 7.01660156 18.05224609 C7.01718567 19.00897217 7.01776978 19.96569824 7.01837158 20.95141602 C7.01559399 24.10079751 6.9845167 27.24922217 6.953125 30.3984375 C6.94566147 32.58704105 6.93996907 34.77565129 6.93597412 36.96426392 C6.92072671 42.71505291 6.88145213 48.46543561 6.8371582 54.21606445 C6.79618651 60.08799748 6.77795902 65.95999638 6.7578125 71.83203125 C6.71495739 83.34653234 6.6467165 94.86073234 6.5625 106.375 C1.1366899 106.57356579 -4.2869835 106.71829525 -9.71557617 106.81445312 C-11.5597011 106.85455334 -13.40357374 106.90905166 -15.24682617 106.97851562 C-30.61038309 107.54277264 -30.61038309 107.54277264 -35.12928772 104.65458679 C-36.86673658 102.64191044 -38.11364089 100.66945444 -39.4375 98.375 C-41.01829485 96.88424787 -41.01829485 96.88424787 -42.74609375 95.64453125 C-50.85211685 89.27912734 -50.85211685 89.27912734 -52.48828125 83.95703125 C-52.69395214 80.38803636 -52.57261676 77.76622019 -51.4375 74.375 C-49.54456209 72.52069347 -47.80715844 71.58575955 -45.41796875 70.4609375 C-43.07711245 69.38981118 -43.07711245 69.38981118 -41.4375 66.125 C-39.84066933 60.13688498 -39.25819023 55.57095613 -42.25 50 C-46.51922375 44.79978529 -46.51922375 44.79978529 -52.92578125 43.13671875 C-57.43018441 43.01834578 -60.7001549 43.05324941 -64.875 44.875 C-68.68559443 48.5926531 -71.22088689 52.25260129 -71.59765625 57.68359375 C-71.23859373 62.87686383 -69.76636592 66.28525044 -66.4375 70.375 C-65.73882812 70.92027344 -65.04015625 71.46554688 -64.3203125 72.02734375 C-61.63718449 75.37290378 -62.0573728 78.53421771 -62.125 82.625 C-62.01065786 89.85597482 -62.01065786 89.85597482 -58.375 95.9375 C-57.08913643 97.11314669 -55.77554419 98.25910214 -54.4375 99.375 C-53.11721897 100.72158145 -51.80482852 102.07593981 -50.5 103.4375 C-47.15300411 106.74534974 -43.6748835 109.86887469 -40.1015625 112.9296875 C-38.83583536 114.02902798 -37.6229566 115.1895434 -36.4375 116.375 C-34.54821886 116.69729877 -34.54821886 116.69729877 -32.37084961 116.67797852 C-31.53335678 116.69462051 -30.69586395 116.71126251 -29.83299255 116.72840881 C-28.92775345 116.73682297 -28.02251434 116.74523712 -27.08984375 116.75390625 C-25.69929527 116.77939796 -25.69929527 116.77939796 -24.28065491 116.80540466 C-21.3121729 116.85865399 -18.34370576 116.89888932 -15.375 116.9375 C-12.4027953 116.98136045 -9.43070188 117.02800736 -6.45863342 117.08030701 C-4.60686048 117.11237596 -2.75498895 117.13923063 -0.90306091 117.16053772 C5.45076809 117.26326809 5.45076809 117.26326809 6.5625 118.375 C6.66547905 120.53582473 6.69823582 122.70001269 6.7043457 124.86328125 C6.70782013 125.54147415 6.71129456 126.21966705 6.71487427 126.91841125 C6.72224554 128.39711684 6.72758358 129.8758336 6.73116493 131.35455322 C6.73832286 133.70114105 6.75398798 136.04751883 6.77250671 138.39404297 C6.82498056 145.06816573 6.87287251 151.74217973 6.88842773 158.41650391 C6.89856031 162.49628461 6.92802687 166.57554609 6.96974754 170.65512085 C6.98199819 172.20506851 6.98718972 173.75508977 6.98494911 175.30508423 C6.97237732 186.85039096 8.13683791 195.22091279 16.1015625 203.93359375 C17.80177652 205.61107764 19.56256955 207.06735317 21.5625 208.375 C19.79429061 213.67962817 17.16745255 216.30503163 12.5625 219.375 C9.41740036 219.63785553 9.41740036 219.63785553 5.45330811 219.65588379 C4.72472792 219.66182603 3.99614773 219.66776828 3.24548936 219.67389059 C0.79740241 219.69127188 -1.65048901 219.6942816 -4.09863281 219.69726562 C-5.85124632 219.70652156 -7.6038558 219.71657083 -9.35646057 219.72735596 C-14.12312828 219.75361391 -18.88973964 219.76649597 -23.65646839 219.77537727 C-26.63436709 219.78123768 -29.61225036 219.78944713 -32.5901413 219.79838562 C-41.90679359 219.82573933 -51.22341066 219.84507026 -60.54010034 219.8527894 C-71.29565783 219.8617495 -82.0507068 219.89683775 -92.80610967 219.95479059 C-101.1187479 219.99802645 -109.43124309 220.01819809 -117.74399257 220.02087164 C-122.70919886 220.02296778 -127.67392727 220.0347823 -132.6390152 220.07051086 C-137.31118681 220.10347683 -141.9825215 220.10778257 -146.65476799 220.09023285 C-148.36761403 220.08869221 -150.08050508 220.09737686 -151.79323769 220.11714935 C-166.34357895 220.27524471 -166.34357895 220.27524471 -170.88616943 216.58044434 C-175.16950125 212.00128086 -175.72702844 207.80337928 -175.67800903 201.68084717 C-175.67971788 200.90155452 -175.68142673 200.12226187 -175.68318737 199.3193543 C-175.68648374 196.70597362 -175.67547617 194.09284924 -175.66455078 191.47949219 C-175.6639867 189.60700486 -175.66430317 187.7345171 -175.66543579 185.86203003 C-175.66601042 180.77561362 -175.65423823 175.68929122 -175.64028788 170.60289669 C-175.62779892 165.28843091 -175.62661147 159.97396306 -175.62423706 154.65948486 C-175.61801689 144.59437934 -175.60159881 134.52931719 -175.58153808 124.46423078 C-175.55919578 113.00607913 -175.54818985 101.54792544 -175.53814721 90.08975744 C-175.51723306 66.51814757 -175.48204664 42.94657621 -175.4375 19.375 C-174.78942855 19.37629882 -174.1413571 19.37759764 -173.47364712 19.37893581 C-157.69020133 19.40816248 -141.90732018 19.39874289 -126.12395382 19.34653378 C-118.49112181 19.32221328 -110.85868643 19.31087879 -103.22583008 19.33032227 C-96.57144569 19.34724007 -89.91761616 19.33958141 -83.26330477 19.30265242 C-79.74105326 19.28395709 -76.21973968 19.27740545 -72.6974926 19.30030632 C-68.76129483 19.32543742 -64.82653173 19.29568783 -60.89038086 19.26147461 C-59.14681557 19.2851989 -59.14681557 19.2851989 -57.36802673 19.30940247 C-51.85126945 19.21711643 -48.38967659 19.01143062 -44.3740387 15.01100159 C-43.3857371 13.80669881 -42.40650486 12.59488312 -41.4375 11.375 C-31.96461597 2.49362238 -12.44467573 -5.88293762 0 0 Z " fill="#F9F9FA" transform="translate(204.4375,68.625)"/>
<path d="M0 0 C107.25 0 214.5 0 325 0 C325 107.25 325 214.5 325 325 C217.75 325 110.5 325 0 325 C0 217.75 0 110.5 0 0 Z M18.6875 34.25 C18.05199219 34.95640625 17.41648437 35.6628125 16.76171875 36.390625 C12.32387299 42.96375353 11.55965232 49.06272747 11.61231995 56.77156067 C11.60693441 57.7261861 11.60154887 58.68081152 11.59600013 59.66436499 C11.58174792 62.84774676 11.58881767 66.03071109 11.59594727 69.21411133 C11.59024222 71.50283644 11.58327744 73.7915587 11.57514954 76.08027649 C11.55721638 82.28699604 11.55838706 88.49357422 11.56409192 94.7003119 C11.56718403 99.88656686 11.56109094 105.07279468 11.55505317 110.25904578 C11.54020595 123.19706665 11.54382179 136.13499912 11.55591648 149.07301845 C11.56584355 160.29103207 11.55291539 171.50888063 11.52898229 182.72686879 C11.50455612 194.26349451 11.49539137 205.80002471 11.50163502 217.33667773 C11.50500213 223.80638547 11.50260579 230.27595691 11.48538399 236.74564552 C11.46988981 242.83194751 11.47389824 248.9179351 11.49268913 255.00422478 C11.49636835 257.23300238 11.49328612 259.4618034 11.48280334 261.69055939 C11.00893144 281.02063792 11.00893144 281.02063792 20.11182785 297.44724083 C31.63302071 306.92182071 43.93922078 305.81898259 58.12792969 305.68115234 C60.57301797 305.67945808 63.01810929 305.68041345 65.4631958 305.68380737 C70.70808955 305.68516885 75.95257896 305.66827325 81.19734955 305.63438034 C88.78015687 305.58541067 96.36274821 305.56997065 103.9456965 305.56245239 C116.25135594 305.54935289 128.55677539 305.50951148 140.86230469 305.45263672 C152.80890714 305.39747863 164.75544418 305.35504934 176.70214844 305.32958984 C177.43977066 305.3280135 178.17739288 305.32643716 178.93736729 305.32481305 C182.63816894 305.31698226 186.33897105 305.30940015 190.03977346 305.30194163 C220.69335405 305.23984191 251.34664357 305.13380246 282 305 C282 304.34 282 303.68 282 303 C283.03125 302.9175 284.0625 302.835 285.125 302.75 C291.39411825 301.53662227 294.64641221 298.80930638 298.25 293.6875 C302.60854393 287.16140062 303.27870569 280.82735884 303.23828125 273.20703125 C303.25370806 271.50715354 303.27001222 269.80728361 303.28710938 268.10742188 C303.30348303 265.46588759 303.31253347 262.82492998 303.30541992 260.18334961 C303.29412631 249.2193063 304.05742106 240.99070411 309 231 C311.47957436 223.42855469 312.08412897 215.53072219 312.3125 207.625 C312.51328785 201.566696 313.70067424 197.72703207 317.50390625 192.95703125 C322.85736898 185.9541988 323.20292498 177.30142887 323.25 168.875 C323.2809375 167.52535156 323.2809375 167.52535156 323.3125 166.1484375 C323.3622131 157.49835727 321.82302467 149.67808653 316.5625 142.625 C315.98628906 141.83351563 315.41007812 141.04203125 314.81640625 140.2265625 C312.9881389 137.98546059 311.15115882 135.93471779 309 134 C308.34 134 307.68 134 307 134 C307.15855469 133.00097656 307.31710937 132.00195312 307.48046875 130.97265625 C308.02452176 127.12369865 308.23792504 123.32717297 308.3125 119.4375 C308.34988281 118.17808594 308.38726562 116.91867188 308.42578125 115.62109375 C308.28233168 111.79090435 307.25121279 108.66629513 306.01171875 105.05078125 C302.74781069 94.22827306 303.46925362 82.95462752 303.5 71.75 C303.51211532 67.3068662 303.49823039 62.8649067 303.46875 58.421875 C303.48006958 57.42371765 303.49138916 56.4255603 303.50305176 55.39715576 C303.44586644 47.37446234 301.72201326 40.58390296 296.81640625 34.125 C296.07261719 33.42375 295.32882812 32.7225 294.5625 32 C293.82128906 31.278125 293.08007812 30.55625 292.31640625 29.8125 C286.80474518 25.49983434 281.53257991 25.71107033 274.80973816 25.73257446 C273.77388826 25.72804335 272.73803836 25.72351224 271.67079908 25.71884382 C268.1947942 25.7061689 264.71894538 25.7078222 261.24291992 25.70947266 C258.75272927 25.70348934 256.26254047 25.69668425 253.77235413 25.68911743 C247.7070139 25.67326793 241.64173519 25.66700816 235.57637998 25.66589268 C230.64521177 25.66494188 225.71405638 25.66082998 220.78289223 25.65449142 C206.79721956 25.63688045 192.81157756 25.62765229 178.82589372 25.62915237 C178.07212565 25.62923228 177.31835758 25.6293122 176.54174805 25.62939453 C175.40971281 25.62951717 175.40971281 25.62951717 174.25480817 25.62964229 C162.02580956 25.63045508 149.79693416 25.61131893 137.56797119 25.5831178 C125.00654764 25.55437894 112.44518415 25.54057806 99.88372689 25.54230535 C92.83335785 25.54296892 85.78311795 25.5374911 78.73277855 25.51594925 C72.10157403 25.49581767 65.47059555 25.49642141 58.83936119 25.51098251 C56.40613914 25.51307556 53.97290015 25.50834036 51.53970718 25.4962616 C48.21655435 25.48083402 44.89434517 25.49010188 41.57121277 25.50552368 C40.60962523 25.49523656 39.64803769 25.48494943 38.65731114 25.47435057 C30.39977271 25.55896192 24.19235239 27.91315128 18.6875 34.25 Z " fill="#F9F9FA" transform="translate(0,0)"/>
<path d="M0 0 C1.39456452 0.00667256 2.78911118 0.01863093 4.18359375 0.03515625 C4.89451172 0.03966797 5.60542969 0.04417969 6.33789062 0.04882812 C8.09899388 0.06064761 9.86005411 0.07858362 11.62109375 0.09765625 C11.62109375 0.75765625 11.62109375 1.41765625 11.62109375 2.09765625 C12.45640625 2.19240234 12.45640625 2.19240234 13.30859375 2.2890625 C21.25172064 3.56371969 25.94538705 7.41855954 30.62109375 13.84765625 C32.56586859 20.16817447 32.70200015 26.53302673 29.87109375 32.59765625 C28.21347105 35.46616646 26.60325478 37.50717037 23.62109375 39.09765625 C22.96109375 39.09765625 22.30109375 39.09765625 21.62109375 39.09765625 C21.62109375 39.75765625 21.62109375 40.41765625 21.62109375 41.09765625 C20.63109375 41.75765625 19.64109375 42.41765625 18.62109375 43.09765625 C18.14378413 46.82067128 18.48236765 47.8895671 20.62109375 51.09765625 C24.82526917 51.56478685 27.81897652 50.88688789 31.62109375 49.09765625 C33.89820959 52.51333001 33.78267103 54.12013884 33.16796875 58.09375 C32.34303747 61.11653392 30.84432432 62.93981482 28.62109375 65.09765625 C24.29576784 66.53943155 19.86538268 66.41584878 15.33789062 66.52734375 C12.95971698 66.60097506 12.95971698 66.60097506 9.62109375 67.09765625 C7.32471596 69.8566126 7.32471596 69.8566126 7.87109375 72.66015625 C8.45917427 75.24766192 8.45917427 75.24766192 10.62109375 77.09765625 C18.26569405 79.48659385 26.55929975 78.72355496 33.62109375 75.09765625 C39.81574437 71.49611519 42.43120321 64.66732787 44.62109375 58.09765625 C45.05974138 52.50489893 44.11198779 48.06801821 41.62109375 43.09765625 C40.96109375 42.43765625 40.30109375 41.77765625 39.62109375 41.09765625 C39.95027066 38.21735826 40.7684737 35.61867142 41.62109375 32.84765625 C42.75429978 28.59813365 43.24449884 24.46813926 43.62109375 20.09765625 C44.61109375 20.09765625 45.60109375 20.09765625 46.62109375 20.09765625 C46.62109375 20.75765625 46.62109375 21.41765625 46.62109375 22.09765625 C47.33265625 22.19175781 48.04421875 22.28585938 48.77734375 22.3828125 C55.04029958 23.95715442 60.82013255 28.43160452 64.41015625 33.74609375 C68.69311484 42.28696438 69.97423889 50.75153709 67.99609375 60.22265625 C66.62109375 63.09765625 66.62109375 63.09765625 63.68359375 64.53515625 C60.62109375 65.09765625 60.62109375 65.09765625 57.62109375 65.09765625 C57.62109375 65.75765625 57.62109375 66.41765625 57.62109375 67.09765625 C56.96109375 67.51015625 56.30109375 67.92265625 55.62109375 68.34765625 C53.28793038 69.9966393 53.28793038 69.9966393 53.24609375 73.16015625 C53.33179139 76.21626866 53.33179139 76.21626866 55.62109375 78.09765625 C58.49903984 77.77788446 61.23965511 77.18568055 64.05859375 76.53515625 C67.27027293 75.98682078 70.36963646 76.03390219 73.62109375 76.09765625 C73.62109375 76.75765625 73.62109375 77.41765625 73.62109375 78.09765625 C74.36359375 78.30390625 75.10609375 78.51015625 75.87109375 78.72265625 C80.38715629 80.98068752 81.97995596 84.55892555 83.87109375 89.09765625 C86.31921878 99.17948024 85.10056793 109.80528425 80.62109375 119.09765625 C78.34023504 122.38583426 75.41636667 124.75094651 71.62109375 126.09765625 C70.30109375 126.09765625 68.98109375 126.09765625 67.62109375 126.09765625 C67.41355469 125.41960937 67.20601563 124.7415625 66.9921875 124.04296875 C63.27603402 112.81676452 58.39544966 105.5207132 48.171875 99.375 C43.26457534 96.91759267 38.59849498 96.91478042 33.18359375 96.91015625 C32.43271484 96.89791016 31.68183594 96.88566406 30.90820312 96.87304688 C26.6982441 96.8619388 23.44453787 97.11594822 19.62109375 99.09765625 C18.29218991 100.20131855 18.29218991 100.20131855 18.49609375 102.97265625 C18.47732509 106.12978038 18.47732509 106.12978038 19.62109375 109.09765625 C20.51248047 109.06623535 20.51248047 109.06623535 21.421875 109.03417969 C24.1547708 108.95023771 26.88739432 108.89875344 29.62109375 108.84765625 C30.55566406 108.81414062 31.49023438 108.780625 32.453125 108.74609375 C38.7438005 108.65811227 43.41255832 109.42818549 48.62109375 113.09765625 C50.6796875 115.1328125 50.6796875 115.1328125 52.05859375 117.16015625 C52.53167969 117.83175781 53.00476563 118.50335938 53.4921875 119.1953125 C56.24978532 123.8421988 55.96399548 128.81035269 56.2421875 134.06640625 C56.41320931 137.27031098 56.41320931 137.27031098 58.62109375 140.09765625 C60.20477122 139.95560884 61.78802693 139.80885472 63.37109375 139.66015625 C64.69367188 139.53833984 64.69367188 139.53833984 66.04296875 139.4140625 C68.31459827 139.1352716 70.41961198 138.70975048 72.62109375 138.09765625 C73.29390966 149.58536502 70.80809664 159.91694339 63.62109375 169.09765625 C59.44590511 172.98323643 54.50150897 177.09765625 48.62109375 177.09765625 C48.62109375 177.75765625 48.62109375 178.41765625 48.62109375 179.09765625 C45.65109375 179.09765625 42.68109375 179.09765625 39.62109375 179.09765625 C39.57984375 179.92265625 39.53859375 180.74765625 39.49609375 181.59765625 C38.31067562 186.33932875 36.06413256 189.64670241 32.62109375 193.09765625 C29.24609375 194.59765625 29.24609375 194.59765625 26.62109375 195.09765625 C26.62109375 195.75765625 26.62109375 196.41765625 26.62109375 197.09765625 C19.77757428 199.16362439 12.15341378 200.92874381 5.28125 198.15234375 C1.18510722 195.72669496 -1.6766155 193.05671566 -4.37890625 189.09765625 C-4.87109756 186.01487255 -4.87109756 186.01487255 -4.85992432 182.49809265 C-4.86334202 181.84861925 -4.86675972 181.19914586 -4.87028098 180.52999145 C-4.87685077 178.36158108 -4.85490125 176.19441864 -4.83300781 174.02612305 C-4.83187913 172.46875538 -4.83251361 170.91138559 -4.83477783 169.35401917 C-4.8359251 165.1311226 -4.81241397 160.90868086 -4.784482 156.68588996 C-4.75947036 152.2709889 -4.75712654 147.85607731 -4.75238037 143.44111633 C-4.73994989 135.08301405 -4.70712732 126.72512113 -4.66698241 118.36711103 C-4.62226695 108.85088166 -4.60027823 99.33464227 -4.58020067 89.81833398 C-4.53839474 70.2446579 -4.46804127 50.67117027 -4.37890625 31.09765625 C-3.43917969 31.04158203 -3.43917969 31.04158203 -2.48046875 30.984375 C-1.66320312 30.91863281 -0.8459375 30.85289063 -0.00390625 30.78515625 C0.80820313 30.72714844 1.6203125 30.66914062 2.45703125 30.609375 C5.00030713 30.26775097 5.00030713 30.26775097 6.62109375 27.09765625 C6.87130945 24.01399754 6.87130945 24.01399754 6.62109375 21.09765625 C4.95766538 19.43422788 2.83852285 19.73717528 0.55859375 19.53515625 C-0.36050781 19.45136719 -1.27960938 19.36757812 -2.2265625 19.28125 C-3.29197266 19.19037109 -3.29197266 19.19037109 -4.37890625 19.09765625 C-4.40574612 16.11843032 -4.42566662 13.1394433 -4.44140625 10.16015625 C-4.44978516 9.31001953 -4.45816406 8.45988281 -4.46679688 7.58398438 C-4.47001953 6.77509766 -4.47324219 5.96621094 -4.4765625 5.1328125 C-4.48179932 4.38394775 -4.48703613 3.63508301 -4.49243164 2.86352539 C-4.28203621 -0.40914158 -3.35149431 0.096864 0 0 Z " fill="#F8F9FA" transform="translate(227.37890625,68.90234375)"/>
<path d="M0 0 C5.47056679 2.8797208 8.89893714 5.87983059 11.8671875 11.37109375 C13.63686573 17.71244073 13.03407459 22.49947718 9.89453125 28.1640625 C7.19979776 32.16083848 4.28412587 35.50294763 -0.3828125 37.05859375 C-0.49935686 40.62081685 -0.5701764 44.18254717 -0.6328125 47.74609375 C-0.66632813 48.75349609 -0.69984375 49.76089844 -0.734375 50.79882812 C-0.85431067 56.69667528 -0.85431067 56.69667528 1.375 62.03515625 C2.48488281 63.03675781 2.48488281 63.03675781 3.6171875 64.05859375 C4.30039063 64.70183594 4.98359375 65.34507812 5.6875 66.0078125 C6.36554688 66.58144531 7.04359375 67.15507812 7.7421875 67.74609375 C9.77306841 69.47425845 11.73072929 71.17213554 13.6171875 73.05859375 C16.52241546 73.30076967 16.52241546 73.30076967 19.97192383 73.17114258 C21.32477056 73.1486724 22.67762003 73.12636684 24.0304718 73.10420227 C24.74965601 73.08892298 25.46884022 73.07364368 26.20981789 73.05790138 C30.03474479 72.98569275 33.86005645 72.97569048 37.68554688 72.95507812 C42.54703899 72.9255914 47.40612301 72.87836814 52.26635742 72.76049805 C82.21460794 72.06678543 82.21460794 72.06678543 89.5690155 78.74333191 C91.90020225 81.36849046 93.76394151 84.07647716 95.6171875 87.05859375 C96.2771875 87.38859375 96.9371875 87.71859375 97.6171875 88.05859375 C97.6171875 104.22859375 97.6171875 120.39859375 97.6171875 137.05859375 C99.5971875 138.04859375 99.5971875 138.04859375 101.6171875 139.05859375 C103.84627955 141.58891446 105.46458279 143.58537135 105.8203125 147.01953125 C105.44734758 152.42752266 103.44774626 155.31923877 99.6171875 159.05859375 C95.27524287 160.50590863 91.1500029 160.7175174 86.6171875 160.05859375 C83.245984 157.45995771 80.03241695 154.35328284 79.24609375 150.0078125 C79.12103292 145.74838772 79.22018552 142.93569351 81.9921875 139.55859375 C84.6171875 137.05859375 84.6171875 137.05859375 86.6171875 136.05859375 C86.74096354 130.31119617 86.83160998 124.56457748 86.8918457 118.81616211 C86.91696031 116.86159752 86.95105881 114.90712658 86.99438477 112.95288086 C87.05517184 110.14022707 87.08342733 107.32881673 87.10546875 104.515625 C87.13127518 103.64460648 87.1570816 102.77358795 87.18367004 101.87617493 C87.18566287 97.54666712 87.12413447 95.69014732 84.33666992 92.2175293 C82.99052612 91.1488562 82.99052612 91.1488562 81.6171875 90.05859375 C80.98393555 89.30803711 80.35068359 88.55748047 79.69824219 87.78417969 C76.86781781 85.43722526 74.96463441 85.51797954 71.3203125 85.44921875 C70.11503906 85.41699219 68.90976563 85.38476562 67.66796875 85.3515625 C66.41371094 85.33738281 65.15945312 85.32320313 63.8671875 85.30859375 C62.59746094 85.27894531 61.32773438 85.24929687 60.01953125 85.21875 C56.88535265 85.14805424 53.75191794 85.09535363 50.6171875 85.05859375 C49.01457827 99.75311356 49.01457827 99.75311356 52.55078125 113.546875 C54.89713083 115.83387514 54.89713083 115.83387514 57.453125 117.48046875 C60.12163098 119.42645506 60.70703729 120.92148026 61.6171875 124.05859375 C62.26219845 130.50870327 61.27263055 135.61167294 57.6171875 141.05859375 C53.67091466 145.05129333 49.60191396 146.3864209 44.0546875 146.68359375 C39.55122482 146.4465694 36.4943023 145.61584732 33.0546875 142.6640625 C28.50740391 137.5854387 26.87154298 132.31016287 27.1640625 125.51953125 C27.9294139 121.36288139 29.83812135 118.20134016 32.6171875 115.05859375 C33.4834375 114.58679688 34.3496875 114.115 35.2421875 113.62890625 C39.23879452 109.30363089 38.40130731 103.97832437 38.4296875 98.30859375 C38.45482422 97.13425781 38.47996094 95.95992188 38.50585938 94.75 C38.56475108 91.8525281 38.60101719 88.9565677 38.6171875 86.05859375 C37.84866455 86.16856689 37.0801416 86.27854004 36.28833008 86.3918457 C12.98341777 89.27261834 12.98341777 89.27261834 4.5945282 82.79014587 C-1.72822155 77.3140875 -8.63457123 70.5550763 -12.3828125 63.05859375 C-12.46808878 61.02626741 -12.48997385 58.99112369 -12.48046875 56.95703125 C-12.47724609 55.7453125 -12.47402344 54.53359375 -12.47070312 53.28515625 C-12.46232422 52.01414063 -12.45394531 50.743125 -12.4453125 49.43359375 C-12.43854492 47.51546875 -12.43854492 47.51546875 -12.43164062 45.55859375 C-12.41982453 42.39188083 -12.40335065 39.22526019 -12.3828125 36.05859375 C-13.17139648 35.76654053 -13.95998047 35.4744873 -14.77246094 35.17358398 C-17.74823304 33.90250737 -18.78386789 32.73394442 -20.6328125 30.12109375 C-21.38304688 29.08662109 -21.38304688 29.08662109 -22.1484375 28.03125 C-25.21770483 23.12625 -24.94493877 17.64773499 -24.3828125 12.05859375 C-21.98671483 6.9788667 -17.92895447 3.29679696 -13.3828125 0.05859375 C-8.68344928 -1.50786066 -4.61008279 -1.82136058 0 0 Z " fill="#0B66AB" transform="translate(101.3828125,117.94140625)"/>
<path d="M0 0 C3.40569591 2.14706916 5.80960782 4.10417103 7 8 C7.4295804 13.41271309 7.41866383 16.56839874 4 21 C3.2263208 21.61004883 3.2263208 21.61004883 2.43701172 22.23242188 C-0.94194226 26.38866157 0.17540014 33.33057028 0.125 38.5 C0.1096521 39.53110397 0.1096521 39.53110397 0.09399414 40.58303833 C-0.11908465 51.00187577 -0.11908465 51.00187577 4.94091797 59.6953125 C6.42346228 60.87651912 8.00827407 61.92587657 9.59375 62.96484375 C12 65 12 65 12.46875 68.62890625 C12 72 12 72 10 74 C7.33203125 74.5546875 7.33203125 74.5546875 4 74 C1.24276939 72.00887644 -1.00111182 69.60895238 -3.3125 67.125 C-3.94478516 66.47402344 -4.57707031 65.82304687 -5.22851562 65.15234375 C-10.05904066 60.13025449 -11.13053009 57.60042402 -11.140625 50.578125 C-11.15895952 49.06248505 -11.17853043 47.54685965 -11.19921875 46.03125 C-11.22813285 43.6436318 -11.24999858 41.256945 -11.25048828 38.86914062 C-11.2538375 36.56296325 -11.28847453 34.25892822 -11.328125 31.953125 C-11.3210553 31.24665833 -11.3139856 30.54019165 -11.30670166 29.81231689 C-11.44522294 24.12648596 -13.22892442 21.93179558 -17 18 C-18.5547669 14.89046621 -18.28644437 12.43733239 -18 9 C-13.51321704 0.954734 -9.38590307 -2.38313945 0 0 Z " fill="#0C67AC" transform="translate(188,88)"/>
<path d="M0 0 C6.44303082 1.46042032 10.43429528 5.12725904 14.05078125 10.46484375 C17.22132954 16.92456629 17.0948713 24.47685031 15.29296875 31.359375 C12.04629287 39.88509472 7.19974078 45.2906622 -0.94921875 49.46484375 C-3.72121067 50.17044169 -6.06942188 50.36012386 -8.94921875 50.46484375 C-11.45314701 47.96091549 -11.93641507 46.60568424 -12.26171875 43.02734375 C-10.7157582 38.83116511 -10.02110989 38.65599713 -6.13671875 36.83984375 C-4.78320312 36.25009766 -4.78320312 36.25009766 -3.40234375 35.6484375 C0.35329375 33.83640221 2.27215038 31.41142092 3.80078125 27.58984375 C4.36124776 22.82587841 4.82892643 18.55280513 2.05078125 14.46484375 C-0.27273895 13.19373737 -0.27273895 13.19373737 -2.94921875 12.33984375 C-7.76984655 10.64421595 -7.76984655 10.64421595 -9.94921875 8.46484375 C-9.76171875 4.96484375 -9.76171875 4.96484375 -8.94921875 1.46484375 C-5.51106722 -0.82725727 -3.98012755 -0.64758931 0 0 Z " fill="#0D66AB" transform="translate(249.94921875,199.53515625)"/>
<path d="M0 0 C1.71703125 -0.01546875 1.71703125 -0.01546875 3.46875 -0.03125 C6.5 0.5 6.5 0.5 8.38671875 2.15234375 C9.79006052 5.11167149 9.86513384 7.29515341 9.8125 10.5625 C9.80863281 11.60535156 9.80476563 12.64820313 9.80078125 13.72265625 C9.5 16.5 9.5 16.5 7.5 19.5 C4.6015625 19.8984375 4.6015625 19.8984375 1.125 19.875 C-0.58816406 19.88660156 -0.58816406 19.88660156 -2.3359375 19.8984375 C-5.78373957 19.46426983 -7.2178113 19.11374154 -9.5 16.5 C-9.99609375 13.72265625 -9.99609375 13.72265625 -9.9375 10.5625 C-9.93621094 9.52222656 -9.93492188 8.48195313 -9.93359375 7.41015625 C-8.96932677 0.93827424 -6.24986866 -0.05630512 0 0 Z " fill="#F1F5F8" transform="translate(81.5,47.5)"/>
<path d="M0 0 C1.71703125 -0.01546875 1.71703125 -0.01546875 3.46875 -0.03125 C6.5 0.5 6.5 0.5 8.37890625 2.15234375 C9.78473083 5.09624818 9.93346402 7.30546518 9.9375 10.5625 C9.96650391 12.12677734 9.96650391 12.12677734 9.99609375 13.72265625 C9.5 16.5 9.5 16.5 7.81640625 18.34765625 C5.03147497 19.73307738 3.1027202 19.90057187 0 19.875 C-1.40765625 19.88660156 -1.40765625 19.88660156 -2.84375 19.8984375 C-5.99731402 19.4254029 -7.34898124 18.86063079 -9.5 16.5 C-9.99609375 13.72265625 -9.99609375 13.72265625 -9.9375 10.5625 C-9.93621094 9.52222656 -9.93492188 8.48195313 -9.93359375 7.41015625 C-8.96932677 0.93827424 -6.24986866 -0.05630512 0 0 Z " fill="#F4F6F9" transform="translate(47.5,47.5)"/>
<path d="M0 0 C1.051875 -0.00773437 2.10375 -0.01546875 3.1875 -0.0234375 C6 0.375 6 0.375 7.85546875 1.45703125 C9.62322045 4.41937283 9.3583427 7.02750846 9.3125 10.4375 C9.30863281 11.68660156 9.30476563 12.93570313 9.30078125 14.22265625 C9 17.375 9 17.375 7 19.375 C4.3203125 19.640625 4.3203125 19.640625 1.125 19.625 C-0.44894531 19.63273437 -0.44894531 19.63273437 -2.0546875 19.640625 C-4.91599111 19.3825764 -6.57276909 18.8524449 -9 17.375 C-9.08097324 15.10475032 -9.13917704 12.83367925 -9.1875 10.5625 C-9.22230469 9.29792969 -9.25710937 8.03335938 -9.29296875 6.73046875 C-9 3.375 -9 3.375 -7.86328125 1.44921875 C-5.19154863 -0.09108832 -3.0655489 -0.0225408 0 0 Z " fill="#F3F6F9" transform="translate(116,47.625)"/>
<path d="M0 0 C2.625 0.375 2.625 0.375 5 1.9375 C6.625 4.375 6.625 4.375 6.5 8.0625 C6.21125 9.155625 5.9225 10.24875 5.625 11.375 C2.86249964 12.75625018 0.67768901 12.56579306 -2.375 12.375 C-4.375 10.375 -4.375 10.375 -4.640625 8.5 C-4.63546875 7.79875 -4.6303125 7.0975 -4.625 6.375 C-4.63015625 5.67375 -4.6353125 4.9725 -4.640625 4.25 C-4.20828321 1.19817563 -2.93417303 0.46329048 0 0 Z " fill="#EFF4F8" transform="translate(94.375,129.625)"/>
<path d="M0 0 C2.9375 0.8125 2.9375 0.8125 4.9375 2.8125 C5.32036803 6.54546326 5.08665785 7.58876323 2.9375 10.8125 C-0.5625 11.1875 -0.5625 11.1875 -4.0625 10.8125 C-6.21752531 7.57996204 -6.53106135 6.56099077 -6.0625 2.8125 C-4.28235296 -0.15441173 -3.48497618 -0.21336589 0 0 Z " fill="#EAF1F6" transform="translate(146.0625,240.1875)"/>
<path d="M0 0 C2.5 0.25 2.5 0.25 4.5 2.25 C4.75 5.25 4.75 5.25 4.5 8.25 C2.5 10.25 2.5 10.25 0.0625 10.5625 C-2.5 10.25 -2.5 10.25 -4.375 9.0625 C-5.5 7.25 -5.5 7.25 -5.3125 4.6875 C-4.22827241 1.43481722 -3.47807945 0.34780795 0 0 Z " fill="#EEF4F7" transform="translate(148.5,121.75)"/>
<path d="M0 0 C0.33 0 0.66 0 1 0 C1.01458252 0.70084717 1.02916504 1.40169434 1.04418945 2.1237793 C1.11885487 5.31223009 1.21545475 8.49965513 1.3125 11.6875 C1.33505859 12.79029297 1.35761719 13.89308594 1.38085938 15.02929688 C1.41630859 16.09599609 1.45175781 17.16269531 1.48828125 18.26171875 C1.51446533 19.24100342 1.54064941 20.22028809 1.56762695 21.22924805 C2.29615883 25.897858 4.69005201 29.00786865 8.13671875 32.11328125 C9.00200195 32.9012207 9.00200195 32.9012207 9.88476562 33.70507812 C10.47966797 34.23552734 11.07457031 34.76597656 11.6875 35.3125 C12.29400391 35.86228516 12.90050781 36.41207031 13.52539062 36.97851562 C15.01190771 38.32457441 16.50527408 39.66306256 18 41 C17.34 41.66 16.68 42.32 16 43 C13.51677995 40.5457323 11.03913187 38.08591435 8.5625 35.625 C7.85544922 34.92632812 7.14839844 34.22765625 6.41992188 33.5078125 C5.40961914 32.50234375 5.40961914 32.50234375 4.37890625 31.4765625 C3.7557251 30.85861816 3.13254395 30.24067383 2.49047852 29.60400391 C-0.36146736 26.53483365 -0.11747254 24.19934298 -0.09765625 20.1171875 C-0.09443359 18.95058594 -0.09121094 17.78398437 -0.08789062 16.58203125 C-0.07951172 15.35871094 -0.07113281 14.13539063 -0.0625 12.875 C-0.05798828 11.64394531 -0.05347656 10.41289062 -0.04882812 9.14453125 C-0.0370133 6.09630608 -0.02054028 3.04817686 0 0 Z " fill="#407EB7" transform="translate(89,155)"/>
<path d="M0 0 C0.99 0.495 0.99 0.495 2 1 C2.4140625 3.94140625 2.4140625 3.94140625 2.625 7.5625 C2.69976562 8.76003906 2.77453125 9.95757812 2.8515625 11.19140625 C2.90054687 12.11824219 2.94953125 13.04507813 3 14 C6.11105038 14.72362292 7.98805051 15.00210873 11.1875 14.4375 C12.115625 14.293125 13.04375 14.14875 14 14 C14.66 14.66 15.32 15.32 16 16 C11.57829513 17.41494556 7.68925593 18.63944399 3 18 C0.39890604 15.53967112 0.0130186 14.15344595 -0.29296875 10.546875 C-0.25816406 9.29390625 -0.22335937 8.0409375 -0.1875 6.75 C-0.16042969 5.48671875 -0.13335937 4.2234375 -0.10546875 2.921875 C-0.07066406 1.95765625 -0.03585937 0.9934375 0 0 Z " fill="#3873B1" transform="translate(283,192)"/>
<path d="M0 0 C0.33 0 0.66 0 1 0 C1.02505615 0.78125244 1.0501123 1.56250488 1.07592773 2.36743164 C1.19250203 5.93259617 1.31494865 9.49753613 1.4375 13.0625 C1.47681641 14.29162109 1.51613281 15.52074219 1.55664062 16.78710938 C1.7667673 25.44960161 1.7667673 25.44960161 3 34 C4.9568288 35.82337753 4.9568288 35.82337753 7 37 C7 37.66 7 38.32 7 39 C7.99 39.33 8.98 39.66 10 40 C9.34 40.66 8.68 41.32 8 42 C6.85111717 40.87811441 5.70598863 39.75238316 4.5625 38.625 C3.92441406 37.99851563 3.28632813 37.37203125 2.62890625 36.7265625 C-0.59017937 33.31448614 -0.12987876 30.02799177 -0.09765625 25.5859375 C-0.0962413 24.85629791 -0.09482635 24.12665833 -0.09336853 23.37490845 C-0.08776531 21.04156415 -0.07521235 18.70831536 -0.0625 16.375 C-0.05748541 14.79427222 -0.05292243 13.21354293 -0.04882812 11.6328125 C-0.03779484 7.75517146 -0.02052811 3.87760193 0 0 Z " fill="#2F59A5" transform="translate(177,113)"/>
<path d="M0 0 C0.33 0 0.66 0 1 0 C1 1.65 1 3.3 1 5 C2.27875 5.020625 3.5575 5.04125 4.875 5.0625 C5.59429687 5.07410156 6.31359375 5.08570313 7.0546875 5.09765625 C9.08185404 5.12649242 9.08185404 5.12649242 11 4 C13.05859375 3.796875 13.05859375 3.796875 15.4375 3.75 C16.21996094 3.72421875 17.00242187 3.6984375 17.80859375 3.671875 C20.47931509 4.07176911 21.31977439 4.94699122 23 7 C22.43152344 6.97679687 21.86304688 6.95359375 21.27734375 6.9296875 C16.08078598 6.80823206 12.02201633 7.55134144 7 9 C3.5547132 8.69375228 2.46226454 8.46226454 0 6 C-0.125 2.875 -0.125 2.875 0 0 Z " fill="#346EAF" transform="translate(280,139)"/>
<path d="M0 0 C0.33 0 0.66 0 1 0 C1.04898438 1.01320312 1.09796875 2.02640625 1.1484375 3.0703125 C1.22352564 4.42189911 1.29907081 5.77346038 1.375 7.125 C1.4059375 7.79015625 1.436875 8.4553125 1.46875 9.140625 C1.78317333 14.48582164 2.2292437 19.07279134 5.9453125 23.1171875 C6.66460937 23.69726562 7.38390625 24.27734375 8.125 24.875 C9.21167969 25.76832031 9.21167969 25.76832031 10.3203125 26.6796875 C10.87460938 27.11539063 11.42890625 27.55109375 12 28 C11.34 28.66 10.68 29.32 10 30 C8.51780033 28.54474941 7.03932861 27.085701 5.5625 25.625 C4.73878906 24.81289062 3.91507813 24.00078125 3.06640625 23.1640625 C-0.77676707 19.13926473 -0.34633962 15.26073291 -0.625 9.9375 C-0.70234375 8.67583008 -0.70234375 8.67583008 -0.78125 7.38867188 C-0.89783157 5.26105823 -0.9538259 3.13030492 -1 1 C-0.67 0.67 -0.34 0.34 0 0 Z " fill="#2D6BB0" transform="translate(142,141)"/>
<path d="M0 0 C0.66 0.33 1.32 0.66 2 1 C-0.875 5.875 -0.875 5.875 -2 7 C-2.5936444 11.7102277 -2.63528961 15.02721279 0 19.0625 C0.66 19.701875 1.32 20.34125 2 21 C1.01 21 0.02 21 -1 21 C-4.66010086 16.92160189 -5.67996215 13.51826649 -5.47265625 8.19140625 C-4.67280933 4.48302509 -2.6796216 2.61263106 0 0 Z " fill="#2966AB" transform="translate(186,255)"/>
<path d="M0 0 C0.66 0.33 1.32 0.66 2 1 C1.67 1.94875 1.34 2.8975 1 3.875 C-0.10159191 6.77062452 -0.10159191 6.77062452 0 9 C0.67546875 8.84402344 1.3509375 8.68804687 2.046875 8.52734375 C3.38492188 8.23537109 3.38492188 8.23537109 4.75 7.9375 C5.63171875 7.74027344 6.5134375 7.54304687 7.421875 7.33984375 C9.98679028 7.00174128 11.57091639 7.18841365 14 8 C5.11243673 12.93998554 5.11243673 12.93998554 1 12 C-0.875 10.4375 -0.875 10.4375 -2 8 C-1.56363636 1.56363636 -1.56363636 1.56363636 0 0 Z " fill="#386EAF" transform="translate(240,238)"/>
<path d="M0 0 C0.33 0 0.66 0 1 0 C1 4.95 1 9.9 1 15 C8.425 15.99 8.425 15.99 16 17 C16 17.33 16 17.66 16 18 C13.73020335 18.10794277 11.45894804 18.18556176 9.1875 18.25 C7.92292969 18.29640625 6.65835938 18.3428125 5.35546875 18.390625 C2 18 2 18 0.06640625 16.3671875 C-1.27998665 13.37849116 -1.33033766 11.14474282 -1.25 7.875 C-1.23453125 6.82054687 -1.2190625 5.76609375 -1.203125 4.6796875 C-1 2 -1 2 0 0 Z " fill="#3F79B6" transform="translate(106,50)"/>
<path d="M0 0 C0.33 0.99 0.66 1.98 1 3 C0.27981689 2.84152588 -0.44036621 2.68305176 -1.18237305 2.51977539 C-3.85282412 2.02714994 -6.37204546 1.79997351 -9.08203125 1.68359375 C-10.01337891 1.64169922 -10.94472656 1.59980469 -11.90429688 1.55664062 C-12.86400391 1.51732422 -13.82371094 1.47800781 -14.8125 1.4375 C-15.79154297 1.39431641 -16.77058594 1.35113281 -17.77929688 1.30664062 C-20.18607027 1.2009774 -22.59293983 1.09887673 -25 1 C-25 0.67 -25 0.34 -25 0 C-22.33493446 -0.39370286 -19.66967945 -0.76519295 -17 -1.125 C-16.25621094 -1.23714844 -15.51242187 -1.34929687 -14.74609375 -1.46484375 C-9.31504274 -2.17324171 -5.19102084 -1.84234891 0 0 Z " fill="#5588BE" transform="translate(272,177)"/>
<path d="M0 0 C5.06128446 0.86172731 7.12468449 3.98380863 10 8 C12.48909699 12.15372968 14.39315119 16.14520951 15 21 C14.34 21 13.68 21 13 21 C12.70867187 20.20335937 12.41734375 19.40671875 12.1171875 18.5859375 C9.56563045 11.99040325 7.28809592 7.67320105 2 3 C2 2.34 2 1.68 2 1 C1.34 0.67 0.68 0.34 0 0 Z " fill="#1A57A4" transform="translate(307,135)"/>
<path d="M0 0 C4.88049925 3.9419417 9.0580583 8.11950075 13 13 C10 13 10 13 7.51953125 10.91796875 C6.62621094 10.01691406 5.73289063 9.11585938 4.8125 8.1875 C3.91144531 7.29417969 3.01039063 6.40085938 2.08203125 5.48046875 C0 3 0 3 0 0 Z " fill="#2869AD" transform="translate(159,161)"/>
<path d="M0 0 C2.09350689 3.4019487 2.17942163 6.05272412 2 10 C1.67 10 1.34 10 1 10 C0.34 7.69 -0.32 5.38 -1 3 C-1.70125 3.33 -2.4025 3.66 -3.125 4 C-6.26003116 5.09044562 -8.70563182 5.15322643 -12 5 C-7.86687528 1.75254486 -5.36067372 0 0 0 Z " fill="#306BAD" transform="translate(260,116)"/>
<path d="M0 0 C2.3125 2.0625 2.3125 2.0625 4 4 C3.01 4 2.02 4 1 4 C0.34 3.34 -0.32 2.68 -1 2 C-4.12196336 1.53513282 -4.12196336 1.53513282 -7.625 1.375 C-8.81351563 1.30023438 -10.00203125 1.22546875 -11.2265625 1.1484375 C-12.14179688 1.09945312 -13.05703125 1.05046875 -14 1 C-14 0.67 -14 0.34 -14 0 C-3.86435331 -1.43533123 -3.86435331 -1.43533123 0 0 Z " fill="#2664AB" transform="translate(180,202)"/>
<path d="M0 0 C0.33 0 0.66 0 1 0 C1.24878997 2.43694274 1.47463404 4.87238389 1.6875 7.3125 C1.79674805 8.34793945 1.79674805 8.34793945 1.90820312 9.40429688 C2.07421875 11.42578125 2.07421875 11.42578125 2 15 C1.01 15.99 0.02 16.98 -1 18 C-0.505 9.09 -0.505 9.09 0 0 Z " fill="#B9CFE3" transform="translate(323,165)"/>
<path d="M0 0 C0.66 0 1.32 0 2 0 C2.33 1.65 2.66 3.3 3 5 C3.66 5 4.32 5 5 5 C7.1875 7.3125 7.1875 7.3125 9 10 C8.67 10.99 8.34 11.98 8 13 C6.84604289 11.58994275 5.70212534 10.17166542 4.5625 8.75 C3.92441406 7.96109375 3.28632813 7.1721875 2.62890625 6.359375 C1.09494695 4.13752508 0.42869754 2.63256518 0 0 Z " fill="#2A66AA" transform="translate(14,286)"/>
<path d="M0 0 C-2.90092502 1.93395001 -3.89674737 2.30131941 -7.1875 2.625 C-8.445625 2.74875 -9.70375 2.8725 -11 3 C-10.67 2.01 -10.34 1.02 -10 0 C-6.7169902 -1.6415049 -3.57454967 -0.51888624 0 0 Z " fill="#3B73B3" transform="translate(252,200)"/>
<path d="M0 0 C0.33 0 0.66 0 1 0 C1.0825 1.093125 1.165 2.18625 1.25 3.3125 C1.62010299 7.03443943 1.62010299 7.03443943 4.0625 8.8125 C4.701875 9.204375 5.34125 9.59625 6 10 C6 10.66 6 11.32 6 12 C6.99 12.33 7.98 12.66 9 13 C8.34 13.66 7.68 14.32 7 15 C0.32017937 9.5470852 0.32017937 9.5470852 -0.46484375 5.75390625 C-0.4375 3.5625 -0.4375 3.5625 0 0 Z " fill="#1F60A9" transform="translate(178,140)"/>
<path d="M0 0 C1.12894876 0.93274109 2.25300876 1.87140122 3.375 2.8125 C4.00148438 3.33457031 4.62796875 3.85664063 5.2734375 4.39453125 C7 6 7 6 9 9 C6 9 6 9 4.39453125 7.5390625 C3.61142578 6.59160156 3.61142578 6.59160156 2.8125 5.625 C2.28269531 4.99851563 1.75289063 4.37203125 1.20703125 3.7265625 C0 2 0 2 0 0 Z " fill="#2A6AAF" transform="translate(106,183)"/>
<path d="M0 0 C1.12894876 0.93274109 2.25300876 1.87140122 3.375 2.8125 C4.00148437 3.33457031 4.62796875 3.85664063 5.2734375 4.39453125 C7 6 7 6 9 9 C6 9 6 9 4.39453125 7.5390625 C3.61142578 6.59160156 3.61142578 6.59160156 2.8125 5.625 C2.28269531 4.99851563 1.75289062 4.37203125 1.20703125 3.7265625 C0 2 0 2 0 0 Z " fill="#266AAD" transform="translate(188,142)"/>
<path d="M0 0 C2.875 0.3125 2.875 0.3125 6 1 C8.29013653 4.4352048 8.17842973 5.985331 8 10 C7.67 10 7.34 10 7 10 C6.773125 9.05125 6.54625 8.1025 6.3125 7.125 C5.30916286 3.80676612 5.30916286 3.80676612 2.375 2.625 C1.59125 2.41875 0.8075 2.2125 0 2 C0 1.34 0 0.68 0 0 Z " fill="#2363AA" transform="translate(144,238)"/>
<path d="M0 0 C0.33 0 0.66 0 1 0 C1 1.98 1 3.96 1 6 C1.99 6.33 2.98 6.66 4 7 C4 7.66 4 8.32 4 9 C4.99 9.33 5.98 9.66 7 10 C3.96846314 9.67226629 2.38426897 9.35865103 0.125 7.25 C-1.29737468 4.40525065 -0.91172698 2.98383376 0 0 Z " fill="#3F72B2" transform="translate(235,137)"/>
<path d="M0 0 C3.81287042 1.44626119 5.32707177 3.30194812 7 7 C6.6875 9.3125 6.6875 9.3125 6 11 C5.566875 10.071875 5.13375 9.14375 4.6875 8.1875 C3.2554627 5.48254066 2.14813084 4.0458389 0 2 C0 1.34 0 0.68 0 0 Z " fill="#1A59A5" transform="translate(106,122)"/>
<path d="M0 0 C-2.88211302 0.96070434 -4.69850044 1.10581883 -7.6875 1.0625 C-8.89986328 1.04896484 -8.89986328 1.04896484 -10.13671875 1.03515625 C-11.05904297 1.01775391 -11.05904297 1.01775391 -12 1 C-4.57203842 -2.77588047 -4.57203842 -2.77588047 0 0 Z " fill="#2A66AA" transform="translate(299,208)"/>
<path d="M0 0 C3.36720387 1.39332574 4.9859524 2.9789286 7 6 C4 6 4 6 1.8125 4.125 C0 2 0 2 0 0 Z " fill="#2766AB" transform="translate(100,191)"/>
<path d="M0 0 C3.25543229 0.34879632 4.01873107 1.02133261 6.25 3.5625 C6.8275 4.366875 7.405 5.17125 8 6 C5 6 5 6 3.3125 4.625 C2 3 2 3 2 1 C1.34 0.67 0.68 0.34 0 0 Z " fill="#2662AA" transform="translate(307,135)"/>
<path d="M0 0 C5.75 0.75 5.75 0.75 8 3 C7.05125 2.938125 6.1025 2.87625 5.125 2.8125 C3.578125 2.9053125 3.578125 2.9053125 2 3 C1.34 3.99 0.68 4.98 0 6 C0 4.02 0 2.04 0 0 Z " fill="#0C60A8" transform="translate(269,87)"/>
<path d="M0 0 C-0.66 0 -1.32 0 -2 0 C-2 0.66 -2 1.32 -2 2 C-4.31 2.33 -6.62 2.66 -9 3 C-6.07868595 -0.19953443 -4.37453972 -1.45817991 0 0 Z " fill="#4B7FB8" transform="translate(34,27)"/>
</svg>
