<?xml version="1.0" standalone="no"?>
<!DOCTYPE svg PUBLIC "-//W3C//DTD SVG 20010904//EN"
 "http://www.w3.org/TR/2001/REC-SVG-20010904/DTD/svg10.dtd">
<svg version="1.0" xmlns="http://www.w3.org/2000/svg"
 width="1024.000000pt" height="1024.000000pt" viewBox="0 0 1024.000000 1024.000000"
 preserveAspectRatio="xMidYMid meet">

<g transform="translate(0.000000,1024.000000) scale(0.100000,-0.100000)"
fill="#000000" stroke="none">
<path d="M997 6669 c-21 -5 -50 -15 -65 -23 -42 -22 -107 -97 -123 -142 -12
-32 -14 -241 -14 -1224 l0 -1185 27 -51 c15 -29 46 -68 69 -87 83 -71 -3 -67
1363 -67 l1231 0 50 24 c60 27 108 73 138 130 19 37 22 61 27 256 5 192 8 220
28 261 33 71 52 155 59 269 5 88 10 110 29 135 53 70 78 145 82 246 7 157 -24
254 -110 343 l-48 50 6 95 c5 81 2 108 -17 176 -21 71 -24 109 -29 345 -5 248
-7 268 -27 306 -28 53 -74 99 -127 127 l-41 22 -1235 2 c-702 0 -1251 -3
-1273 -8z m225 -239 c13 -16 18 -39 18 -81 0 -72 -19 -89 -99 -89 -76 0 -91
16 -91 94 0 34 4 66 8 73 24 38 134 40 164 3z m338 5 c16 -14 20 -31 20 -77 0
-77 -19 -98 -93 -98 -80 0 -97 17 -97 94 0 63 10 83 50 99 27 11 100 0 120
-18z m348 2 c8 -9 14 -39 15 -74 3 -84 -15 -103 -94 -103 -50 0 -60 3 -78 26
-37 46 -24 145 21 164 30 13 118 4 136 -13z m802 -189 c18 -13 41 -39 52 -58
17 -33 18 -63 16 -520 l-3 -485 -190 3 -190 2 -90 88 c-49 48 -93 92 -97 97
-4 6 -8 38 -8 72 0 62 1 63 34 77 65 27 101 115 77 188 -6 19 -27 50 -46 68
-31 30 -43 35 -98 38 -52 3 -67 0 -97 -20 -19 -13 -45 -44 -58 -70 -34 -67
-24 -116 34 -178 l44 -47 0 -84 0 -83 128 -128 128 -128 204 0 c113 0 210 -4
217 -8 9 -6 13 -102 15 -372 3 -352 4 -366 25 -405 21 -40 67 -88 111 -117
l22 -15 -22 -33 c-13 -18 -36 -43 -51 -54 -28 -21 -31 -21 -915 -21 -980 0
-924 -4 -969 64 l-23 34 0 953 0 954 633 0 633 0 30 31 c49 52 145 112 234
146 105 40 172 43 220 11z m351 -14 c128 -37 202 -118 201 -219 0 -64 -19
-102 -69 -143 -69 -57 -73 -62 -73 -84 0 -51 57 -74 106 -41 22 14 27 14 35 2
30 -46 17 -102 -34 -145 -29 -24 -37 -26 -101 -21 -63 4 -72 2 -93 -19 -29
-29 -29 -36 1 -71 23 -26 29 -28 107 -28 121 0 179 34 229 134 30 60 26 165
-9 212 -24 32 -24 32 -6 82 10 27 21 74 24 104 l6 54 61 -31 c124 -62 191
-174 181 -305 -7 -94 -11 -101 -63 -115 -88 -25 -121 -82 -74 -125 20 -18 23
-18 68 -2 61 22 90 21 128 -2 69 -42 104 -118 104 -227 0 -122 -48 -221 -123
-254 -48 -22 -57 -19 -57 19 0 43 -60 149 -108 192 -69 60 -138 82 -249 77
-72 -3 -96 -8 -112 -22 -23 -21 -27 -47 -10 -78 10 -19 17 -20 87 -14 130 11
207 -23 257 -116 23 -43 29 -64 28 -116 0 -57 2 -65 24 -80 23 -15 30 -15 85
0 l60 15 -5 -71 c-2 -39 -14 -97 -26 -128 -41 -107 -149 -197 -257 -214 -34
-5 -43 -11 -52 -38 -32 -86 -150 -166 -246 -166 -59 0 -120 26 -156 64 l-25
28 -5 789 c-3 493 -1 794 5 800 5 5 20 9 33 9 26 0 63 17 74 34 13 19 9 54 -9
71 -15 16 -20 16 -97 2 -8 -2 -9 181 0 195 9 13 97 9 155 -8z m-873 -526 c7
-7 12 -26 12 -43 0 -36 -15 -55 -44 -55 -24 0 -56 28 -56 49 0 46 59 78 88 49z"/>
<path d="M2441 6042 c-37 -20 -71 -73 -71 -110 0 -27 32 -93 54 -111 13 -11
16 -41 16 -180 l0 -166 78 -78 c78 -78 112 -93 140 -65 27 27 13 63 -48 123
l-60 59 0 153 c0 140 2 153 20 166 27 19 50 66 50 102 0 43 -35 94 -75 111
-45 18 -63 18 -104 -4z"/>
<path d="M1568 5750 c-135 -40 -173 -225 -66 -315 16 -13 36 -28 44 -33 11 -6
15 -38 17 -150 l2 -142 110 -104 110 -105 143 0 142 -1 0 -128 0 -129 -39 -31
c-127 -102 -76 -297 83 -310 92 -7 164 48 181 139 11 59 -10 113 -65 168 l-50
50 0 115 c0 63 3 117 8 119 4 3 65 8 135 12 l129 7 54 -55 54 -54 0 -202 0
-202 -40 -38 c-33 -32 -40 -44 -40 -77 0 -51 32 -102 75 -120 46 -19 74 -18
112 6 44 26 66 63 66 111 0 33 -7 47 -37 78 l-36 37 0 236 0 236 -82 77 -83
77 -335 -6 -335 -6 -77 75 -78 76 0 107 c0 59 4 112 8 118 4 6 21 19 39 29 42
25 70 64 85 119 35 131 -101 256 -234 216z m95 -142 c36 -48 -1 -108 -57 -94
-38 9 -52 51 -32 94 13 27 21 33 43 30 14 -2 35 -15 46 -30z m497 -1088 c24
-24 25 -48 4 -78 -29 -42 -94 -19 -94 34 0 27 32 64 55 64 8 0 24 -9 35 -20z"/>
<path d="M3092 4924 c-45 -31 -22 -80 49 -103 20 -7 44 -20 54 -31 27 -30 30
-90 7 -142 -17 -39 -30 -51 -83 -79 -53 -28 -65 -39 -67 -62 -4 -34 22 -67 52
-67 12 0 48 15 81 33 159 88 197 310 71 414 -34 28 -94 53 -127 53 -8 0 -25
-7 -37 -16z"/>
<path d="M4698 6390 c-157 -28 -281 -111 -363 -239 -71 -113 -101 -305 -71
-461 52 -279 264 -450 555 -450 147 0 266 46 357 136 87 87 129 196 140 364
l7 95 -257 1 -256 1 0 -83 0 -84 159 -2 158 -3 -17 -51 c-22 -69 -67 -124
-132 -160 -50 -27 -60 -29 -163 -29 -94 0 -117 3 -156 23 -114 56 -180 153
-199 295 -28 199 46 374 188 444 51 25 67 28 162 28 97 0 109 -2 158 -29 55
-31 94 -74 118 -131 l14 -35 100 0 c97 0 100 1 100 23 0 30 -53 141 -91 188
-42 53 -139 115 -217 139 -75 23 -222 33 -294 20z"/>
<path d="M5440 5830 l0 -570 95 0 95 0 0 570 0 570 -95 0 -95 0 0 -570z"/>
<path d="M6690 5830 l0 -570 90 0 90 0 0 47 0 47 33 -32 c71 -68 179 -94 292
-67 150 35 249 134 290 292 53 202 -24 405 -187 494 -61 33 -67 34 -173 34
-102 0 -113 -2 -156 -27 -26 -15 -59 -42 -73 -59 l-26 -31 0 221 0 221 -90 0
-90 0 0 -570z m518 47 c23 -14 54 -48 69 -74 25 -42 28 -58 28 -133 0 -72 -4
-93 -26 -135 -37 -74 -92 -108 -177 -113 -123 -6 -202 61 -224 190 -21 122 23
231 113 277 63 32 160 26 217 -12z"/>
<path d="M8430 5830 l0 -570 95 0 95 0 0 570 0 570 -95 0 -95 0 0 -570z"/>
<path d="M6080 6079 c-126 -21 -252 -117 -308 -236 -25 -53 -27 -69 -27 -178
0 -116 1 -123 33 -187 18 -37 53 -88 78 -112 90 -91 241 -139 364 -118 143 26
256 108 313 230 40 85 49 214 22 308 -58 204 -260 328 -475 293z m197 -201
c120 -79 133 -312 23 -412 -120 -109 -307 -53 -355 106 -38 129 8 267 106 317
63 32 169 27 226 -11z"/>
<path d="M7879 6080 c-133 -23 -234 -112 -273 -237 -7 -23 -6 -23 92 -23 l98
0 15 32 c32 72 130 99 212 59 52 -25 77 -67 77 -130 l0 -41 -107 0 c-128 0
-219 -13 -285 -42 -110 -47 -152 -154 -113 -286 32 -108 122 -166 255 -166 95
1 147 16 205 59 l45 35 0 -40 0 -41 90 3 90 3 1 296 c0 285 0 299 -22 348 -29
69 -105 136 -173 156 -69 19 -151 25 -207 15z m221 -497 c0 -44 -28 -110 -56
-135 -34 -30 -91 -48 -150 -48 -50 0 -59 3 -90 34 -27 27 -34 42 -34 74 0 85
50 109 228 111 l102 1 0 -37z"/>
<path d="M4625 5060 c-187 -39 -316 -158 -370 -342 -21 -73 -21 -233 0 -312
48 -182 176 -302 365 -342 140 -30 297 0 396 75 100 76 152 185 161 338 l6 93
-222 0 -221 0 0 -70 0 -70 135 0 c74 0 135 -4 135 -9 0 -29 -36 -101 -67 -133
-59 -61 -120 -81 -227 -76 -68 3 -102 10 -133 26 -60 31 -111 86 -142 151 -23
50 -26 68 -26 166 0 98 3 116 26 165 35 76 80 124 142 154 144 70 320 28 380
-90 l23 -46 90 0 c81 0 89 2 86 19 -7 39 -62 143 -96 180 -90 100 -286 154
-441 123z"/>
<path d="M7960 4865 l0 -105 -60 0 -60 0 0 -70 0 -70 60 0 60 0 0 -192 c0
-110 5 -210 11 -233 27 -97 91 -139 214 -139 113 -1 115 0 115 77 l0 64 -53
-5 c-46 -4 -57 -1 -83 21 l-29 25 -3 191 -3 191 85 0 86 0 0 70 0 70 -85 0
-85 0 0 105 0 105 -85 0 -85 0 0 -105z"/>
<path d="M5513 4766 c-100 -33 -186 -106 -227 -195 -17 -38 -21 -65 -21 -156
0 -100 2 -115 28 -167 35 -71 110 -140 185 -169 44 -17 78 -23 147 -23 81 0
96 3 156 32 77 37 130 91 168 171 23 49 26 69 26 156 0 87 -4 107 -26 156 -37
79 -90 133 -166 171 -54 26 -79 32 -146 35 -51 2 -98 -2 -124 -11z m223 -171
c51 -39 74 -94 74 -183 0 -76 -13 -116 -54 -160 -65 -73 -185 -77 -260 -11
-50 43 -69 101 -65 192 5 90 35 143 101 176 61 31 153 25 204 -14z"/>
<path d="M6348 4769 c-20 -6 -55 -27 -78 -46 l-42 -36 6 36 6 37 -85 0 -85 0
0 -350 0 -351 83 3 82 3 5 240 c4 207 7 245 22 268 34 51 101 68 166 41 73
-28 77 -43 80 -316 l4 -238 84 0 84 0 0 239 c0 231 1 239 23 272 62 92 219 64
241 -42 3 -17 6 -130 6 -250 l0 -219 86 0 85 0 -3 263 c-3 242 -5 265 -24 308
-73 158 -283 200 -413 83 l-48 -43 -22 29 c-12 17 -40 39 -62 50 -47 24 -148
34 -201 19z"/>
<path d="M7415 4767 c-90 -30 -136 -68 -174 -144 -35 -70 -33 -73 64 -73 71 0
85 3 85 16 0 26 55 72 94 80 84 15 155 -32 163 -110 l6 -46 -64 0 c-96 0 -229
-19 -274 -39 -45 -20 -102 -79 -111 -116 -14 -54 1 -151 28 -193 67 -100 257
-122 368 -41 22 16 41 29 43 29 2 0 1 -16 -1 -35 l-4 -35 86 0 86 0 0 254 c0
201 -3 262 -15 297 -38 106 -123 161 -259 166 -49 2 -97 -2 -121 -10z m231
-432 c-8 -59 -18 -78 -63 -112 -32 -24 -45 -28 -106 -28 -63 0 -71 2 -93 28
-29 34 -32 86 -6 115 24 29 72 40 181 41 l94 1 -7 -45z"/>
<path d="M8583 4765 c-102 -31 -166 -88 -212 -185 -23 -49 -26 -68 -26 -165 0
-104 2 -114 33 -177 18 -36 49 -81 69 -99 117 -102 308 -117 436 -33 51 34
108 105 122 152 6 21 5 22 -72 22 -77 0 -80 -1 -112 -34 -59 -61 -169 -72
-243 -23 -35 24 -78 97 -78 134 l0 23 261 0 262 0 -6 63 c-20 213 -149 339
-345 336 -26 0 -66 -6 -89 -14z m184 -145 c36 -22 60 -54 73 -99 l9 -31 -171
0 -170 0 6 31 c8 43 39 83 78 102 47 23 135 22 175 -3z"/>
<path d="M9232 4761 c-60 -21 -118 -70 -138 -118 -21 -50 -18 -122 9 -165 39
-65 90 -92 229 -122 97 -22 128 -44 128 -95 0 -55 -26 -74 -105 -79 -63 -4
-66 -3 -100 31 -19 19 -35 42 -35 51 0 13 -13 16 -76 16 l-77 0 5 -44 c13
-116 149 -197 305 -183 151 14 243 98 243 219 0 110 -64 170 -222 208 -147 36
-182 62 -158 120 14 33 47 50 100 50 53 0 87 -17 102 -52 13 -27 15 -28 92
-28 l78 0 -7 38 c-24 134 -208 210 -373 153z"/>
</g>
</svg>
