<?xml version="1.0" standalone="no"?>
<!DOCTYPE svg PUBLIC "-//W3C//DTD SVG 20010904//EN"
 "http://www.w3.org/TR/2001/REC-SVG-20010904/DTD/svg10.dtd">
<svg version="1.0" xmlns="http://www.w3.org/2000/svg"
 width="412.000000pt" height="412.000000pt" viewBox="0 0 412.000000 412.000000"
 preserveAspectRatio="xMidYMid meet">
<metadata>
Created by potrace 1.16, written by Peter Selinger 2001-2019
</metadata>
<g transform="translate(0.000000,412.000000) scale(0.100000,-0.100000)"
fill="#000000" stroke="none">
<path d="M1726 3918 c-105 -14 -259 -104 -302 -177 -16 -27 -22 -29 -89 -33
-102 -5 -203 -56 -300 -152 -93 -93 -119 -146 -120 -248 0 -43 -4 -78 -9 -78
-5 0 -37 -14 -72 -31 -85 -42 -164 -126 -211 -224 -30 -64 -36 -89 -40 -163
-3 -59 0 -102 10 -133 14 -45 14 -46 -16 -80 -16 -19 -43 -63 -60 -99 -59
-127 -46 -296 34 -422 29 -45 30 -49 20 -104 -22 -119 -6 -260 40 -360 31 -67
122 -156 182 -179 26 -10 47 -24 47 -31 0 -7 19 -50 42 -96 32 -63 64 -104
128 -169 106 -107 208 -162 337 -180 l81 -12 4 -176 c3 -163 5 -179 26 -213
14 -22 41 -45 69 -59 47 -22 50 -23 523 -23 l476 -1 41 27 c60 40 73 76 73
206 l0 110 -213 -5 c-257 -7 -299 0 -352 58 -19 21 -36 40 -37 42 -2 1 -5 646
-8 1432 -6 1595 1 1470 -76 1533 -21 18 -52 34 -69 36 -73 11 -104 12 -159 4z
m5 -291 c51 -34 97 -101 104 -151 9 -58 -13 -181 -37 -212 -36 -46 -128 -20
-128 36 0 10 7 45 15 77 19 72 14 88 -41 139 -49 47 -57 81 -24 114 26 26 69
25 111 -3z m-372 -204 c16 -13 24 -36 31 -82 11 -78 38 -110 150 -175 89 -52
122 -86 163 -174 26 -56 29 -71 25 -130 -8 -108 -56 -179 -148 -221 -103 -47
-210 -17 -340 94 -68 59 -118 79 -167 69 -39 -8 -67 8 -83 46 -10 25 -10 34 4
55 23 35 61 48 121 42 70 -7 129 -35 205 -97 72 -58 132 -89 171 -90 65 0 113
85 90 160 -15 51 -59 94 -147 147 -121 72 -194 176 -194 277 0 82 63 124 119
79z m-274 -937 c87 -43 167 -118 185 -172 20 -61 49 -101 81 -114 43 -18 104
8 184 81 49 44 73 59 95 59 36 0 70 -31 70 -63 0 -38 -53 -101 -127 -150 -90
-60 -115 -69 -193 -70 -106 -2 -174 50 -225 173 -10 25 -29 57 -43 71 -29 33
-103 73 -160 89 -78 20 -101 63 -60 115 19 25 26 27 70 23 28 -3 80 -21 123
-42z m-261 -367 c20 -15 26 -29 26 -57 0 -51 39 -131 83 -168 36 -33 74 -47
215 -85 85 -22 122 -49 122 -90 0 -31 -36 -59 -76 -59 -40 0 -231 53 -279 77
-92 47 -162 133 -195 242 -26 83 -25 107 5 136 30 30 64 32 99 4z m885 -334
c49 -33 101 -102 126 -167 24 -65 17 -196 -13 -254 -29 -58 -112 -129 -180
-155 -84 -32 -199 -31 -272 2 -104 48 -148 121 -103 171 24 27 58 22 113 -16
64 -44 113 -52 184 -32 95 28 146 90 146 179 0 65 -34 123 -99 165 -49 33 -56
42 -59 74 -6 72 73 88 157 33z"/>
<path d="M2201 3896 c-9 -10 -11 -390 -11 -1472 0 -1364 1 -1460 17 -1471 43
-32 282 -3 453 53 336 112 649 388 813 719 131 265 192 615 157 905 -80 654
-540 1158 -1156 1265 -112 19 -257 20 -273 1z m290 -275 c91 -92 158 -191 214
-319 l43 -97 -162 -3 c-88 -2 -176 0 -193 3 l-33 6 0 203 c0 112 -3 232 -7
266 l-6 64 34 -24 c19 -13 68 -58 110 -99z m339 -32 c110 -57 245 -164 322
-254 37 -44 64 -83 60 -87 -11 -10 -161 -37 -225 -40 l-57 -3 -24 65 c-30 87
-93 209 -150 294 -25 38 -46 71 -46 73 0 9 46 -10 120 -48z m520 -561 c58
-130 94 -265 115 -435 l7 -53 -220 0 -219 0 -7 98 c-6 84 -21 207 -42 348 l-6
41 78 8 c44 4 115 17 159 30 44 12 86 23 93 24 7 0 26 -27 42 -61z m-753 -15
l202 -6 11 -51 c15 -69 37 -233 44 -333 l6 -83 -255 0 -256 0 5 48 c2 26 5
136 5 246 1 184 2 198 19 191 9 -3 108 -9 219 -12z m865 -703 c-6 -118 -55
-293 -122 -437 l-38 -81 -73 18 c-41 11 -114 26 -163 35 -49 8 -91 16 -92 18
-1 1 4 34 11 72 14 75 31 213 41 337 l6 77 56 3 c31 2 129 3 217 3 l160 0 -3
-45z m-614 -67 c-7 -98 -26 -229 -46 -323 -9 -41 17 -38 -272 -27 l-175 6 0
65 c0 36 2 138 3 226 l2 160 248 0 248 0 -8 -107z m-114 -544 c4 -3 -10 -45
-30 -93 -65 -155 -161 -285 -269 -361 -34 -25 -66 -45 -71 -45 -5 0 -9 115 -9
256 l0 256 187 -3 c102 -2 189 -7 192 -10z m372 -49 c47 -9 87 -20 91 -23 15
-16 -169 -190 -277 -262 -66 -43 -190 -109 -190 -101 0 3 31 65 69 138 38 73
81 166 97 206 l28 73 49 -6 c27 -4 87 -15 133 -25z"/>
<path d="M1662 372 c-20 -14 -17 -106 5 -144 10 -19 38 -43 63 -55 42 -22 55
-23 290 -23 135 0 261 5 280 10 20 5 51 26 70 45 30 31 35 42 38 100 l4 65
-219 0 c-121 0 -287 3 -369 6 -84 3 -155 1 -162 -4z"/>
</g>
</svg>
